<svg width="43" height="40" viewBox="0 0 43 40" fill="none" xmlns="http://www.w3.org/2000/svg">
<path d="M42.8209 5.81814C42.6417 5.63635 42.4625 5.45448 42.1042 5.45448H8.0625L7.16664 0.727246C7.16664 0.363581 6.62914 0 6.27078 0H0.895777C0.358361 0 0 0.363581 0 0.909037C0 1.45449 0.358361 1.81816 0.895861 1.81816H5.55422L9.85422 24.0001C10.3917 26.9091 13.0792 29.091 15.9459 29.091H36.55C37.0875 29.091 37.4459 28.7273 37.4459 28.1818C37.4459 27.6364 37.0875 27.2727 36.55 27.2727H16.125C14.6916 27.2727 13.2584 26.5455 12.5416 25.2727L38.7 21.6364C39.0584 21.6364 39.4166 21.2727 39.4166 20.9091L43 6.3636C43 6.3636 43 5.99993 42.8209 5.81814ZM37.8041 20L11.6458 23.4545L8.42078 7.09084H40.85L37.8041 20Z" fill="white"/>
<path d="M15.2291 30.9092C12.7209 30.9092 10.75 32.9092 10.75 35.4546C10.75 38.0001 12.7209 40.0001 15.2291 40.0001C17.7375 40.0001 19.7083 38 19.7083 35.4546C19.7083 32.9092 17.7375 30.9092 15.2291 30.9092ZM15.2291 38.1819C13.7958 38.1819 12.5416 36.9091 12.5416 35.4546C12.5416 34.0001 13.7958 32.7273 15.2291 32.7273C16.6625 32.7273 17.9166 34.0001 17.9166 35.4546C17.9166 36.9091 16.6625 38.1819 15.2291 38.1819Z" fill="white"/>
<path d="M33.1458 30.9092C30.6375 30.9092 28.6667 32.9092 28.6667 35.4546C28.6667 38.0001 30.6376 40.0001 33.1458 40.0001C35.6542 40.0001 37.625 38 37.625 35.4546C37.625 32.9092 35.6541 30.9092 33.1458 30.9092ZM33.1458 38.1819C31.7125 38.1819 30.4583 36.9091 30.4583 35.4546C30.4583 34.0001 31.7125 32.7273 33.1458 32.7273C34.5792 32.7273 35.8333 34.0001 35.8333 35.4546C35.8333 36.9091 34.5791 38.1819 33.1458 38.1819Z" fill="white"/>
</svg>
