<svg width="97" height="110" viewBox="0 0 97 110" fill="none" xmlns="http://www.w3.org/2000/svg">
<path fill-rule="evenodd" clip-rule="evenodd" d="M53.6424 89.9879C54.2949 91.8368 55.3826 94.9909 56.6877 96.0785C58.1016 97.1661 59.0805 96.8398 60.4944 96.8398C61.1469 96.8398 61.7995 96.9486 62.2345 97.2749C62.9959 97.3837 63.5397 97.6012 63.866 98.0362C63.5397 97.9275 63.1046 98.0362 62.6696 98.145C65.8237 98.145 68.9778 97.7099 69.8479 98.4713C70.6092 98.58 71.2618 98.9063 71.588 99.8852C70.9355 99.6677 70.3917 99.6677 69.8479 99.8852C69.5216 100.211 68.9778 100.32 68.3252 100.211C64.5185 99.9939 61.4732 100.32 57.5578 99.8852C58.1016 100.103 58.9717 100.32 59.0805 101.082C59.298 101.299 59.5155 101.517 59.5155 101.843C59.298 101.734 58.9717 101.625 58.7542 101.625C57.8841 102.06 55.6001 101.19 54.6212 101.082C54.6212 101.299 54.73 101.408 54.8388 101.625C55.6001 102.278 56.6877 102.278 57.6666 102.169C58.5366 102.169 59.5155 102.06 60.0593 102.495C60.6031 102.604 60.9294 102.822 61.1469 103.148C60.9294 103.148 60.4944 103.148 60.1681 103.257C60.0593 103.692 59.6243 103.801 59.4067 103.801C60.6031 103.909 61.6907 103.909 62.7784 104.018C64.1923 104.018 67.3463 103.366 68.5427 104.236C69.0865 104.344 69.7391 104.779 69.9566 105.541C69.4128 105.432 68.9778 105.432 68.5427 105.541C67.6726 106.411 64.7361 105.976 63.5397 105.976C61.582 106.085 60.1681 106.085 58.9717 106.193C59.733 106.628 60.1681 106.955 61.582 107.39C62.3433 107.607 62.8871 107.499 63.5397 107.607C64.0835 107.716 64.5185 108.042 64.7361 108.477C65.1711 108.912 65.3886 109.347 65.4974 110C65.1711 109.674 64.8448 109.674 64.301 109.565C63.6484 109.674 63.2134 109.565 62.7784 109.456C62.1258 109.239 61.7995 109.021 61.0382 108.912C58.8629 108.369 57.2315 107.716 55.6001 107.063C52.881 107.281 51.2496 106.846 50.9233 105.541C50.5971 105.432 50.3795 105.323 50.0532 105.214C49.5094 106.193 48.0955 106.846 46.8992 106.193C46.3553 106.085 45.9203 106.085 45.2677 106.193C45.7028 105.758 46.1378 105.432 46.6816 105.323C46.8992 104.453 49.2919 103.366 49.727 101.19C49.5094 100.429 49.2919 99.7764 49.0744 99.0151C48.3131 99.5589 47.443 99.7764 46.5729 99.3414C46.1378 99.3414 45.8115 99.3414 45.159 99.5589C45.4853 98.9063 46.0291 98.58 46.4641 98.4713C46.7904 97.7099 48.2043 97.3837 48.5306 96.6223C48.2043 94.5559 47.5517 92.4894 46.6816 90.4229C42.6575 89.8791 38.4157 87.8126 36.5668 84.1148C26.452 81.6132 19.0562 75.9576 14.7057 66.3866C11.8779 65.299 5.67851 61.0573 4.15585 57.1419C5.46099 56.9243 6.11356 56.3805 6.87489 56.0542C4.15585 54.5316 0.675479 50.3986 0.893002 46.1569C1.98062 46.2657 2.85071 46.0482 3.93833 46.0482C1.65433 44.308 -0.955945 38.6524 0.349194 34.8457C1.32805 35.3896 2.63319 35.4983 3.61204 35.7158C1.54557 33.1056 0.566717 27.885 2.85071 23.5345C3.82956 24.1871 4.91718 24.1871 5.78727 24.5134C5.1347 22.0119 5.78727 16.3563 8.83259 13.9635C9.48516 14.8336 10.8991 15.3774 11.7692 16.1388C11.6604 13.6372 13.7269 9.06925 17.6423 7.43783C18.1861 9.28678 19.2737 9.83058 19.4912 11.1357C20.4701 8.19915 24.0592 4.71878 28.6272 4.50125C26.0169 10.9182 27.3221 24.0783 31.6725 31.0391C37.1106 34.9545 42.6575 37.5648 50.0532 37.7823C53.5336 35.172 58.9717 32.7793 62.9959 31.8004C63.5397 30.9303 64.0835 30.0602 64.6273 29.0814C70.2829 19.4016 73.0019 10.3744 81.3766 7.65535C79.9627 6.45897 79.0926 3.41364 81.0503 2.1085C81.1591 -0.284254 83.2255 -0.828052 84.9657 1.45594C85.1832 1.67346 85.4008 1.99974 85.5095 1.56469C85.6183 0.912123 85.8358 0.150795 86.2708 0.803365C86.7059 1.45593 87.0322 2.65231 87.3585 1.34717C87.4672 0.912126 87.6847 -0.0667246 88.2286 1.12965C88.4461 1.5647 88.5549 1.99975 88.6636 2.54356C88.8811 3.08737 88.9899 3.41364 89.3162 2.9786C89.4249 2.76107 89.4249 2.65232 89.5337 2.54356C89.7512 2.10851 89.9687 2.21726 90.0775 2.65231C90.1863 2.97859 90.295 3.30489 90.295 3.63117C90.4038 4.17498 90.9476 4.9363 91.2739 3.95744C91.3826 3.73992 91.4914 3.30489 91.6002 3.30489C91.8177 3.30489 91.9265 3.84868 92.144 4.50125C92.4703 5.69763 92.9053 6.35021 93.3403 7.11154C94.1017 8.52544 94.863 10.4831 93.6666 12.2233C94.3192 12.5496 95.6244 13.4197 96.2769 14.9424C94.9718 14.8336 94.6455 15.4862 92.4703 15.2687C94.3192 18.5315 92.0352 23.2083 87.6847 22.0119C86.4884 33.5406 97.5821 59.8609 75.2859 76.3927C72.5669 80.7431 65.9324 84.1148 60.8206 84.1148C59.6243 86.9426 56.6877 89.1178 53.6424 89.9879Z" fill="white"/>
</svg>
