<svg width="141" height="100" viewBox="0 0 141 100" fill="none" xmlns="http://www.w3.org/2000/svg">
<path fill-rule="evenodd" clip-rule="evenodd" d="M85.9549 92.1324C86.1556 92.3331 86.3563 92.5338 86.557 92.8349C86.6574 92.4335 86.6574 91.9317 86.557 91.3295C85.8545 87.0139 86.0552 82.6984 85.8545 78.3828C85.5534 77.7806 85.2523 76.9777 85.152 75.8737C84.9512 76.777 84.6501 77.6802 84.1483 78.7842C84.4494 83.9027 84.4494 87.5157 85.9549 92.1324ZM1.44999 62.5256C1.44999 59.7154 2.75469 56.8049 2.75469 52.9912C2.75469 50.181 2.65433 47.4713 2.55397 44.6611C2.15252 34.2235 -2.46414 15.4558 13.6942 16.0579C21.6228 13.4485 32.7629 15.0543 40.8923 17.1619C69.8969 18.6674 81.2378 14.0507 96.9947 14.2514C103.819 13.3482 105.626 12.6456 111.547 9.63477C111.045 9.33368 110.644 9.03259 110.242 8.63114C109.038 7.32644 108.837 5.62028 109.741 4.71702C110.945 3.51268 112.952 4.71702 114.157 5.31919C114.759 5.62028 115.261 5.92137 115.863 6.22245C115.863 5.62028 116.264 4.81738 116.967 4.21521C119.275 2.10761 124.795 1.80652 127.103 0C125.999 2.00724 123.892 3.11123 122.085 4.21521C124.092 3.51268 126.601 3.91413 128.408 2.70978C127.304 4.41594 125.196 4.91774 123.591 5.821C124.494 6.32281 125.297 7.12571 125.698 8.22969C128.91 10.3373 130.215 12.746 130.817 15.6565C133.928 18.6674 135.032 22.18 138.243 23.9865C142.358 25.492 140.251 31.7144 137.942 31.7144C136.537 34.4242 132.724 31.9151 128.91 32.6177C125.598 33.7217 122.587 33.4206 119.175 32.718C107.131 39.4423 108.436 49.4785 100.808 55.9017C99.1023 60.3176 96.5932 62.6259 93.5824 63.8303C93.1809 65.7372 92.6791 67.644 92.378 69.852C91.7759 73.7661 91.7759 76.3755 90.4712 80.2897C90.973 85.8096 91.0733 89.7237 92.6791 94.7418C93.5824 95.7454 94.9874 97.1505 95.69 98.8566C95.9911 99.5592 95.3889 99.8603 94.2849 99.9606C93.2813 100.061 92.4784 99.9606 91.7758 99.7599C90.5715 99.4588 89.7686 99.0574 88.9657 98.1541C88.5643 97.6523 88.1628 97.1505 88.1628 96.749C87.8617 96.8494 87.5606 96.8494 87.1592 96.8494C86.1556 96.8494 85.3527 96.8494 84.6501 96.749C83.4458 96.448 82.7433 96.1469 81.9404 95.2436C81.5389 94.8422 81.2378 94.24 81.2378 93.9389C81.3382 93.5375 81.2378 92.7346 80.3346 92.4335C80.2342 92.5338 80.1339 92.7346 80.1339 92.9353C80.1339 93.0356 80.0335 93.0356 79.9331 92.9353C79.4313 92.4335 79.2306 91.6306 79.632 91.0284C79.4313 90.627 79.9331 90.0248 79.7324 88.8204C79.1302 84.806 79.4313 80.8918 79.4313 76.8774C78.227 74.7698 78.1266 68.6477 78.1266 64.1314C77.0226 64.1314 75.9186 64.031 74.8147 63.8303C68.1908 64.4325 47.0144 66.4397 35.5731 63.7299C34.3687 66.5401 31.9601 68.748 28.8488 69.9524C28.8488 71.5582 28.7485 73.9668 28.0459 73.9668C27.7449 73.9668 27.5441 73.3647 27.4438 72.5618C27.3434 73.465 27.1427 74.2679 26.7412 74.2679C26.1391 74.2679 26.0387 72.3611 26.0387 70.7553C25.3362 70.8556 24.734 70.956 24.0315 70.956C24.0315 72.4614 23.8307 74.3683 23.3289 74.3683C22.9275 74.3683 22.7267 73.5654 22.6264 72.4614C22.526 73.5654 22.3253 74.569 21.9239 74.569C21.2213 74.569 21.121 72.3611 21.121 70.6549C20.9202 70.6549 20.7195 70.5545 20.5188 70.5545C20.3181 71.4578 20.1173 72.4614 20.017 73.465C19.4148 78.8846 20.4184 86.1107 22.0242 91.4299C23.0278 92.5338 24.4329 94.0393 25.1354 95.7454C25.4365 96.5483 24.8343 96.8494 23.5296 96.9498C22.526 97.0501 21.6228 96.9498 20.8199 96.749C19.5152 96.448 18.7123 96.0465 17.9094 95.0429C17.5079 94.5411 17.1065 93.9389 17.1065 93.5375C17.2068 93.0356 17.1065 92.1324 16.2032 91.8313C16.1028 92.032 16.0025 92.1324 15.9021 92.4335C15.9021 92.5338 15.7014 92.5338 15.601 92.4335C14.9989 91.9317 14.7981 90.928 15.2999 90.2255C15.0992 89.7237 15.601 89.0212 15.4003 87.7165C14.4971 81.2933 13.2927 75.4723 11.3858 69.3502C10.3822 71.1567 9.67967 72.8629 9.57931 74.3683C9.17786 79.7879 9.98076 88.9208 11.3858 94.3403C12.2891 95.4443 13.6942 96.9498 14.196 98.6559C14.4971 99.4588 13.7945 99.7599 12.5902 99.8603C11.5866 99.9606 10.6833 99.8603 9.8804 99.6595C8.57569 99.3585 7.87316 98.957 7.07026 97.9534C6.66881 97.4516 6.36773 96.8494 6.36773 96.448C6.46809 95.9461 6.46809 95.0429 5.46447 94.7418C5.36411 94.9425 5.26374 95.0429 5.16338 95.344C5.16338 95.4443 4.96266 95.4443 4.86229 95.344C4.36048 94.8422 4.15976 93.8385 4.66157 93.136C4.46084 92.6342 5.06302 91.9317 4.96266 90.627C4.66157 86.6125 4.15976 82.6983 3.35686 78.7842C3.2565 78.8846 3.2565 78.985 3.15614 79.1857C3.15614 77.881 2.85505 76.2752 2.55397 75.0708C2.35324 75.4723 2.15252 75.8737 1.75107 76.2752C2.35324 74.0672 1.34962 73.5654 0.446365 71.9596C-1.05907 68.6477 1.75107 65.7372 1.44999 62.5256ZM4.96266 59.9162C6.167 56.002 6.76917 52.2886 6.76917 48.4749C6.76917 43.3564 4.66157 39.0408 4.0594 34.0227C4.0594 37.4351 4.0594 40.9477 4.26012 44.4604C4.36049 47.2705 4.46085 50.0807 4.56121 52.8908C4.56121 55.3999 4.56121 57.2064 4.96266 59.9162Z" fill="white"/>
</svg>
