<svg width="152" height="100" viewBox="0 0 152 100" fill="none" xmlns="http://www.w3.org/2000/svg">
<g clip-path="url(#clip0)">
<path fill-rule="evenodd" clip-rule="evenodd" d="M18.5421 32.4133L97.8185 3.5323C110.625 -1.13334 129.465 2.66974 133.689 14.2869C137.914 25.9042 125.924 40.9377 113.117 45.6033L18.5421 32.4133ZM113.117 45.6033L50.2526 68.5049L33.8397 74.482C33.0611 74.7656 41.0483 36.9389 18.5421 32.4081" fill="white"/>
<path d="M113.117 45.6033L50.2526 68.5049L33.8397 74.482C33.0611 74.7656 41.0483 36.9389 18.5421 32.4081M18.5421 32.4133L97.8185 3.5323C110.625 -1.13334 129.465 2.66974 133.689 14.2869C137.914 25.9042 125.924 40.9377 113.117 45.6033L18.5421 32.4133Z" stroke="white" stroke-width="5.09" stroke-miterlimit="22.926"/>
<path fill-rule="evenodd" clip-rule="evenodd" d="M139.117 2.52795C134.633 5.19478 132.033 9.74323 133.688 14.287C135.343 18.8307 140.25 20.6432 145.397 19.8011L139.117 2.52795Z" fill="white" stroke="white" stroke-width="5.09" stroke-miterlimit="22.926"/>
<path fill-rule="evenodd" clip-rule="evenodd" d="M33.8403 74.4843C46.6468 69.8187 53.8331 56.5343 49.6086 44.9177C45.384 33.3011 31.3492 27.7483 18.5421 32.4133C5.73498 37.0784 -1.45073 50.3627 2.77382 61.9799C6.99837 73.5972 21.0332 79.15 33.8403 74.4843Z" fill="white" stroke="white" stroke-width="5.09" stroke-miterlimit="22.926"/>
<path fill-rule="evenodd" clip-rule="evenodd" d="M15.081 43.3543C15.5436 43.2635 16.0227 43.312 16.4577 43.4937C16.8928 43.6754 17.2642 43.9821 17.5251 44.3751C17.786 44.7681 17.9245 45.2297 17.9233 45.7016C17.922 46.1734 17.781 46.6342 17.5181 47.0258C17.2551 47.4175 16.8821 47.7223 16.4461 47.9017C16.0101 48.0811 15.5307 48.127 15.0687 48.0337C14.6066 47.9404 14.1825 47.712 13.8501 47.3775C13.5177 47.0429 13.2918 46.6172 13.2011 46.1542C13.0796 45.5334 13.2093 44.8897 13.5618 44.3646C13.9143 43.8396 14.4608 43.4762 15.081 43.3543Z" fill="white" stroke="white"/>
<path fill-rule="evenodd" clip-rule="evenodd" d="M28.9097 38.3148C29.3723 38.2239 29.8514 38.2724 30.2865 38.4541C30.7215 38.6358 31.093 38.9425 31.3538 39.3355C31.6147 39.7285 31.7533 40.1901 31.752 40.662C31.7508 41.1338 31.6098 41.5947 31.3468 41.9863C31.0839 42.3779 30.7108 42.6827 30.2748 42.8621C29.8388 43.0415 29.3595 43.0875 28.8974 42.9942C28.4353 42.9009 28.0112 42.6725 27.6788 42.3379C27.3464 42.0034 27.1206 41.5776 27.0299 41.1146C26.9083 40.4938 27.038 39.8502 27.3906 39.3251C27.7431 38.8 28.2895 38.4366 28.9097 38.3148Z" fill="white" stroke="white"/>
<path fill-rule="evenodd" clip-rule="evenodd" d="M22.5553 63.9014C23.0179 63.8106 23.497 63.8592 23.9321 64.041C24.3671 64.2228 24.7385 64.5296 24.9992 64.9227C25.26 65.3158 25.3985 65.7774 25.3972 66.2492C25.3958 66.7211 25.2547 67.1819 24.9917 67.5735C24.7286 67.9651 24.3555 68.2698 23.9194 68.4491C23.4834 68.6283 23.004 68.6741 22.5419 68.5807C22.0798 68.4872 21.6558 68.2588 21.3235 67.9242C20.9912 67.5895 20.7654 67.1637 20.6749 66.7007C20.5535 66.0799 20.6834 65.4363 21.036 64.9113C21.3887 64.3864 21.9352 64.0231 22.5553 63.9014V63.9014Z" fill="white" stroke="white"/>
<path fill-rule="evenodd" clip-rule="evenodd" d="M36.3828 58.8637C36.8453 58.773 37.3242 58.8217 37.759 59.0035C38.1939 59.1853 38.5651 59.4921 38.8257 59.8851C39.0864 60.278 39.2247 60.7395 39.2234 61.2112C39.222 61.6829 39.0809 62.1435 38.818 62.5349C38.555 62.9264 38.182 63.231 37.7461 63.4102C37.3102 63.5895 36.831 63.6353 36.3691 63.542C35.9072 63.4486 35.4833 63.2203 35.151 62.8858C34.8187 62.5513 34.593 62.1258 34.5024 61.6629C34.4422 61.3555 34.4431 61.0392 34.505 60.7322C34.5669 60.4252 34.6887 60.1333 34.8633 59.8734C35.0379 59.6134 35.262 59.3905 35.5227 59.2172C35.7834 59.044 36.0757 58.9238 36.3828 58.8637V58.8637Z" fill="white" stroke="white"/>
<path fill-rule="evenodd" clip-rule="evenodd" d="M39.5056 46.0909C39.9681 46.0003 40.447 46.049 40.8818 46.2308C41.3167 46.4126 41.6879 46.7194 41.9485 47.1123C42.2092 47.5053 42.3475 47.9668 42.3462 48.4385C42.3448 48.9102 42.2037 49.3708 41.9407 49.7622C41.6778 50.1537 41.3048 50.4583 40.8689 50.6375C40.433 50.8168 39.9538 50.8626 39.4919 50.7693C39.03 50.6759 38.6061 50.4476 38.2738 50.1131C37.9415 49.7786 37.7158 49.3531 37.6252 48.8902C37.5649 48.5828 37.5657 48.2665 37.6276 47.9594C37.6895 47.6524 37.8113 47.3605 37.9859 47.1005C38.1605 46.8406 38.3846 46.6176 38.6454 46.4444C38.9061 46.2711 39.1985 46.1511 39.5056 46.0909V46.0909Z" fill="white" stroke="white"/>
<path fill-rule="evenodd" clip-rule="evenodd" d="M11.9606 56.1289C12.4231 56.0382 12.902 56.0867 13.3369 56.2684C13.7718 56.4501 14.1431 56.7569 14.4038 57.1498C14.6646 57.5427 14.803 58.0042 14.8017 58.4759C14.8004 58.9476 14.6594 59.4083 14.3965 59.7998C14.1336 60.1913 13.7606 60.4959 13.3248 60.6753C12.8889 60.8546 12.4097 60.9005 11.9477 60.8072C11.4858 60.7139 11.0618 60.4855 10.7295 60.1511C10.3972 59.8166 10.1714 59.3911 10.0808 58.9282C10.0206 58.6208 10.0214 58.3046 10.0833 57.9976C10.1452 57.6906 10.2669 57.3987 10.4415 57.1388C10.616 56.8789 10.84 56.6559 11.1007 56.4826C11.3613 56.3093 11.6535 56.1892 11.9606 56.1289V56.1289Z" fill="white" stroke="white"/>
<path fill-rule="evenodd" clip-rule="evenodd" d="M25.7325 51.1081C26.195 51.0173 26.6741 51.0657 27.1092 51.2474C27.5442 51.4291 27.9157 51.7359 28.1766 52.1289C28.4374 52.5219 28.576 52.9835 28.5747 53.4553C28.5735 53.9271 28.4325 54.388 28.1695 54.7797C27.9066 55.1713 27.5336 55.476 27.0976 55.6554C26.6616 55.8348 26.1822 55.8808 25.7201 55.7875C25.258 55.6942 24.834 55.4658 24.5016 55.1312C24.1691 54.7967 23.9433 54.371 23.8526 53.908C23.7923 53.6006 23.7931 53.2843 23.855 52.9773C23.9168 52.6702 24.0385 52.3782 24.2131 52.1182C24.3877 51.8582 24.6117 51.6353 24.8724 51.4619C25.1331 51.2886 25.4253 51.1684 25.7325 51.1081V51.1081Z" fill="white" stroke="white"/>
<path fill-rule="evenodd" clip-rule="evenodd" d="M113.264 92.6067C122.727 98.592 136.144 95.9591 144.249 86.2575C152.991 75.7923 152.552 60.6926 143.078 52.763C136.786 47.4968 128.091 46.7174 120.397 49.853" fill="white"/>
<path d="M113.264 92.6067C122.727 98.592 136.144 95.9591 144.249 86.2575C152.991 75.7923 152.552 60.6926 143.078 52.763C136.786 47.4968 128.091 46.7174 120.397 49.853" stroke="white" stroke-width="5.09" stroke-miterlimit="22.926"/>
<path fill-rule="evenodd" clip-rule="evenodd" d="M98.5094 93.4282C98.966 93.5776 99.4291 93.7136 99.9015 93.8313C111.886 96.8199 124.334 88.2809 127.63 75.0446C130.927 61.8083 123.942 48.4173 111.959 45.4264C104.782 43.635 97.4403 45.9813 91.9957 50.9933" fill="white"/>
<path d="M98.5094 93.4282C98.966 93.5776 99.4291 93.7136 99.9015 93.8313C111.886 96.8199 124.334 88.2809 127.63 75.0446C130.927 61.8083 123.942 48.4173 111.959 45.4264C104.782 43.635 97.4403 45.9813 91.9957 50.9933" stroke="white" stroke-width="5.09" stroke-miterlimit="22.926"/>
<path fill-rule="evenodd" clip-rule="evenodd" d="M105.686 68.1339C102.319 54.9152 89.8273 46.4389 77.8591 49.4924C65.8909 52.546 58.9762 65.9734 62.3449 79.1921C65.7135 92.4108 78.2033 100.888 90.1715 97.8342C102.14 94.7806 109.052 81.3526 105.686 68.1339Z" fill="white" stroke="white" stroke-width="5.09" stroke-miterlimit="22.926"/>
<path fill-rule="evenodd" clip-rule="evenodd" d="M72.8735 83.7242C72.8291 83.2543 72.925 82.7819 73.1489 82.3665C73.3728 81.9512 73.7148 81.6117 74.1315 81.3909C74.5483 81.1701 75.0211 81.0779 75.4901 81.1261C75.9592 81.1743 76.4034 81.3606 76.7667 81.6614C77.13 81.9623 77.3959 82.3643 77.5309 82.8165C77.666 83.2687 77.664 83.7508 77.5252 84.2019C77.3865 84.653 77.1172 85.0527 76.7515 85.3506C76.3857 85.6485 75.94 85.8311 75.4705 85.8754C75.1588 85.905 74.8444 85.8729 74.5451 85.7808C74.2459 85.6887 73.9677 85.5385 73.7265 85.3387C73.4853 85.1389 73.2858 84.8934 73.1394 84.6164C72.9931 84.3394 72.9027 84.0362 72.8735 83.7242V83.7242Z" fill="white" stroke="white"/>
<path fill-rule="evenodd" clip-rule="evenodd" d="M69.2384 69.4519C69.1942 68.9822 69.2901 68.5099 69.514 68.0947C69.738 67.6796 70.0799 67.3402 70.4965 67.1195C70.9131 66.8989 71.3857 66.8068 71.8546 66.855C72.3235 66.9032 72.7676 67.0894 73.1307 67.3902C73.4939 67.691 73.7597 68.0928 73.8947 68.5449C74.0297 68.9969 74.0278 69.4789 73.8891 69.9298C73.7505 70.3807 73.4814 70.7803 73.1158 71.0782C72.7503 71.376 72.3047 71.5587 71.8354 71.6031C71.5238 71.6326 71.2094 71.6004 70.9101 71.5083C70.6109 71.4162 70.3328 71.2659 70.0916 71.0662C69.8504 70.8664 69.6509 70.6209 69.5045 70.344C69.3581 70.067 69.2677 69.7639 69.2384 69.4519V69.4519Z" fill="white" stroke="white"/>
<path fill-rule="evenodd" clip-rule="evenodd" d="M94.0436 78.3226C93.9994 77.8527 94.0953 77.3802 94.3193 76.965C94.5433 76.5497 94.8854 76.2103 95.3021 75.9895C95.7189 75.7688 96.1917 75.6768 96.6607 75.725C97.1297 75.7733 97.5739 75.9597 97.9371 76.2606C98.3003 76.5615 98.5662 76.9635 98.7012 77.4157C98.8361 77.8679 98.8341 78.3499 98.6953 78.801C98.5566 79.252 98.2873 79.6517 97.9215 79.9495C97.5558 80.2474 97.11 80.43 96.6406 80.4743C96.3289 80.5038 96.0145 80.4716 95.7152 80.3794C95.4159 80.2873 95.1378 80.1369 94.8966 79.9371C94.6554 79.7373 94.4559 79.4918 94.3096 79.2148C94.1632 78.9377 94.0728 78.6346 94.0436 78.3226V78.3226Z" fill="white" stroke="white"/>
<path fill-rule="evenodd" clip-rule="evenodd" d="M90.4086 64.0503C90.3644 63.5806 90.4603 63.1083 90.6842 62.6932C90.9081 62.278 91.25 61.9387 91.6666 61.718C92.0833 61.4973 92.5559 61.4052 93.0248 61.4534C93.4937 61.5016 93.9378 61.6878 94.3009 61.9886C94.664 62.2894 94.9299 62.6912 95.0649 63.1433C95.1999 63.5953 95.1979 64.0773 95.0593 64.5282C94.9206 64.9791 94.6515 65.3787 94.286 65.6765C93.9204 65.9744 93.4749 66.1571 93.0056 66.2014C92.6939 66.231 92.3795 66.1988 92.0803 66.1067C91.7811 66.0145 91.5029 65.8643 91.2618 65.6645C91.0206 65.4648 90.8211 65.2193 90.6747 64.9423C90.5283 64.6654 90.4379 64.3622 90.4086 64.0503V64.0503Z" fill="white" stroke="white"/>
<path fill-rule="evenodd" clip-rule="evenodd" d="M78.0213 59.6712C77.977 59.2014 78.0729 58.7292 78.2969 58.314C78.5208 57.8988 78.8628 57.5594 79.2794 57.3387C79.6961 57.118 80.1687 57.026 80.6376 57.0743C81.1066 57.1225 81.5507 57.3088 81.9138 57.6096C82.2769 57.9105 82.5427 58.3123 82.6777 58.7644C82.8126 59.2165 82.8106 59.6985 82.6719 60.1494C82.5331 60.6003 82.2639 60.9999 81.8983 61.2977C81.5326 61.5955 81.087 61.7781 80.6177 61.8223C80.3061 61.8518 79.9917 61.8196 79.6926 61.7274C79.3934 61.6352 79.1153 61.485 78.8742 61.2852C78.6331 61.0854 78.4337 60.8401 78.2873 60.5632C78.141 60.2862 78.0506 59.9831 78.0213 59.6712V59.6712Z" fill="white" stroke="white"/>
<path fill-rule="evenodd" clip-rule="evenodd" d="M85.2608 88.1032C85.2165 87.6334 85.3123 87.1609 85.5362 86.7456C85.7602 86.3302 86.1021 85.9907 86.5189 85.7699C86.9356 85.5491 87.4084 85.457 87.8775 85.5051C88.3465 85.5533 88.7908 85.7396 89.154 86.0405C89.5173 86.3414 89.7833 86.7434 89.9183 87.1956C90.0533 87.6478 90.0513 88.1299 89.9125 88.5809C89.7738 89.032 89.5045 89.4318 89.1388 89.7297C88.773 90.0275 88.3273 90.2101 87.8578 90.2544C87.5462 90.284 87.2317 90.2518 86.9325 90.1596C86.6333 90.0675 86.3552 89.9173 86.114 89.7175C85.8728 89.5177 85.6733 89.2723 85.5269 88.9953C85.3805 88.7183 85.2901 88.4152 85.2608 88.1032V88.1032Z" fill="white" stroke="white"/>
<path fill-rule="evenodd" clip-rule="evenodd" d="M81.6411 73.8842C81.5967 73.4144 81.6926 72.9419 81.9165 72.5266C82.1404 72.1112 82.4824 71.7717 82.8991 71.5509C83.3159 71.3301 83.7887 71.238 84.2577 71.2861C84.7268 71.3343 85.171 71.5206 85.5343 71.8215C85.8975 72.1224 86.1635 72.5244 86.2985 72.9766C86.4335 73.4288 86.4315 73.9109 86.2928 74.3619C86.1541 74.813 85.8848 75.2128 85.519 75.5107C85.1533 75.8085 84.7075 75.9911 84.2381 76.0354C83.9264 76.0649 83.6121 76.0327 83.3129 75.9405C83.0137 75.8483 82.7356 75.6981 82.4944 75.4983C82.2532 75.2985 82.0537 75.0532 81.9073 74.7762C81.7609 74.4993 81.6704 74.1962 81.6411 73.8842V73.8842Z" fill="white" stroke="white"/>
<path fill-rule="evenodd" clip-rule="evenodd" d="M107.282 54.4658C107.465 54.0311 107.773 53.6607 108.167 53.4013C108.561 53.1419 109.023 53.0053 109.494 53.0086C109.965 53.0119 110.425 53.1551 110.815 53.4201C111.205 53.685 111.508 54.0598 111.685 54.497C111.863 54.9342 111.906 55.4141 111.811 55.8762C111.716 56.3383 111.486 56.7618 111.15 57.0931C110.814 57.4243 110.388 57.6484 109.925 57.7371C109.462 57.8258 108.983 57.7751 108.549 57.5914C108.261 57.4696 107.999 57.2921 107.779 57.069C107.56 56.846 107.386 56.5818 107.268 56.2915C107.151 56.0012 107.091 55.6906 107.093 55.3773C107.096 55.064 107.16 54.7543 107.282 54.4658V54.4658Z" fill="white" stroke="white"/>
<path fill-rule="evenodd" clip-rule="evenodd" d="M112.557 78.4908C112.741 78.0562 113.049 77.6857 113.442 77.4263C113.836 77.167 114.298 77.0303 114.769 77.0336C115.241 77.037 115.701 77.1802 116.091 77.4451C116.481 77.71 116.784 78.0848 116.961 78.522C117.138 78.9592 117.182 79.4392 117.087 79.9013C116.991 80.3634 116.761 80.7869 116.426 81.1181C116.09 81.4493 115.664 81.6734 115.201 81.7622C114.738 81.8509 114.259 81.8002 113.825 81.6164C113.536 81.4946 113.275 81.317 113.055 81.0939C112.835 80.8708 112.662 80.6067 112.544 80.3164C112.426 80.0262 112.367 79.7155 112.369 79.4023C112.371 79.089 112.435 78.7793 112.557 78.4908V78.4908Z" fill="white" stroke="white"/>
<path fill-rule="evenodd" clip-rule="evenodd" d="M116.115 64.1996C116.298 63.7652 116.606 63.395 117 63.1358C117.394 62.8766 117.856 62.7401 118.327 62.7436C118.798 62.747 119.258 62.8903 119.648 63.1552C120.038 63.4201 120.34 63.7948 120.517 64.2319C120.695 64.669 120.738 65.1489 120.643 65.6108C120.548 66.0727 120.318 66.496 119.982 66.8271C119.646 67.1582 119.22 67.3823 118.757 67.471C118.294 67.5597 117.816 67.5089 117.382 67.3253C117.093 67.2034 116.832 67.0259 116.612 66.8029C116.392 66.5798 116.219 66.3156 116.101 66.0253C115.983 65.735 115.924 65.4243 115.926 65.1111C115.929 64.7978 115.993 64.4881 116.115 64.1996V64.1996Z" fill="white" stroke="white"/>
<path fill-rule="evenodd" clip-rule="evenodd" d="M130.43 84.0143C130.785 83.7035 131.223 83.5049 131.691 83.4437C132.158 83.3825 132.633 83.4614 133.056 83.6704C133.478 83.8794 133.83 84.2092 134.065 84.6179C134.3 85.0267 134.409 85.4962 134.378 85.9669C134.347 86.4377 134.177 86.8887 133.89 87.2627C133.602 87.6368 133.211 87.9173 132.764 88.0686C132.318 88.2199 131.837 88.2353 131.381 88.1129C130.926 87.9905 130.517 87.7357 130.207 87.3808C129.791 86.9046 129.581 86.2825 129.623 85.6513C129.664 85.0201 129.955 84.4313 130.43 84.0143V84.0143Z" fill="white" stroke="white"/>
<path fill-rule="evenodd" clip-rule="evenodd" d="M138.621 71.4671C138.976 71.1563 139.415 70.9579 139.882 70.8968C140.35 70.8357 140.825 70.9146 141.247 71.1237C141.67 71.3328 142.021 71.6626 142.256 72.0714C142.492 72.4803 142.6 72.9498 142.569 73.4205C142.538 73.8913 142.368 74.3422 142.081 74.7162C141.793 75.0903 141.402 75.3707 140.955 75.5219C140.509 75.6732 140.027 75.6885 139.572 75.566C139.117 75.4435 138.708 75.1886 138.398 74.8336C137.982 74.3574 137.771 73.7353 137.813 73.104C137.855 72.4727 138.146 71.8839 138.621 71.4671V71.4671Z" fill="white" stroke="white"/>
<path fill-rule="evenodd" clip-rule="evenodd" d="M134.921 58.849C135.276 58.5383 135.714 58.34 136.182 58.279C136.649 58.2179 137.124 58.297 137.547 58.5061C137.969 58.7153 138.32 59.0451 138.556 59.454C138.791 59.8629 138.9 60.3323 138.868 60.8031C138.837 61.2739 138.667 61.7248 138.379 62.0987C138.092 62.4727 137.7 62.753 137.254 62.9042C136.807 63.0554 136.326 63.0706 135.871 62.948C135.416 62.8255 135.007 62.5705 134.697 62.2155C134.49 61.9797 134.333 61.7056 134.232 61.4088C134.132 61.112 134.091 60.7984 134.112 60.4858C134.133 60.1732 134.215 59.8677 134.354 59.5868C134.493 59.306 134.685 59.0553 134.921 58.849V58.849Z" fill="white" stroke="white"/>
</g>
<defs>
<clipPath id="clip0">
<rect width="152" height="100" fill="white"/>
</clipPath>
</defs>
</svg>
