<svg width="163" height="88" viewBox="0 0 163 88" fill="none" xmlns="http://www.w3.org/2000/svg">
<path fill-rule="evenodd" clip-rule="evenodd" d="M43.0891 1.06677C54.8965 -0.2904 68.3325 -0.154683 80.1399 0.388185C92.6259 1.06677 106.062 1.74536 118.141 5.81687C125.877 8.80264 131.441 11.7884 135.784 15.3171C144.198 15.9956 148.134 20.4743 154.784 22.1029C153.563 22.6458 152.477 23.1887 151.391 23.4601C153.291 24.6815 155.327 25.903 157.634 26.7173C153.291 28.2102 149.627 28.8888 146.641 28.8888C148.406 32.4174 150.034 36.2175 151.663 40.6961C153.834 43.6819 157.091 46.532 160.213 48.0249C161.977 46.8034 163.334 48.5677 162.927 50.8749C162.52 52.775 161.706 54.9464 160.213 56.1679C158.72 57.5251 156.82 57.2536 154.92 57.5251C151.391 58.0679 150.306 58.8822 146.506 57.9322C134.427 61.1894 126.962 61.7323 117.598 59.5608C116.376 59.8322 115.019 59.968 113.798 60.1037C112.848 65.6681 111.762 72.1825 112.169 76.5254C112.576 78.2898 113.933 80.597 114.883 81.8184C115.698 82.497 119.362 85.6185 117.598 86.4328C116.376 86.9757 112.712 86.7042 111.491 86.2971C110.676 86.0257 110.133 85.0756 109.862 84.6685C109.455 84.397 109.183 83.9899 108.776 83.5827C108.776 83.8542 108.505 83.9899 108.233 84.1256C107.012 84.6685 103.212 84.397 102.126 83.9899C101.447 83.7184 100.905 82.7684 100.633 82.3613C99.6832 81.547 98.7331 79.7827 98.4617 78.6969C98.1903 79.1041 97.9188 79.647 97.7831 80.1898C97.7831 80.3255 97.7831 80.7327 97.6474 80.8684C97.5117 81.1398 97.2402 81.0041 97.1045 80.7327C95.8831 79.1041 96.2902 77.3397 96.5617 74.8968C96.8331 70.4182 95.8831 65.2609 94.933 60.3751C93.983 60.2394 93.1687 60.1037 92.3544 59.968C75.1184 64.7181 52.0464 63.6323 34.2675 59.2894C31.0103 62.9537 29.3817 67.161 30.6032 74.2183C31.146 75.9826 32.7746 78.2898 33.7246 79.5112C34.5389 80.1898 35.6247 81.0041 36.1676 81.8184C37.2533 83.1756 37.5247 84.397 35.0818 84.5328C33.4532 84.6685 31.8246 84.5328 30.6032 84.1256C29.7889 83.8542 29.1103 82.7684 28.8388 82.3613C27.7531 81.547 26.3959 79.7827 25.8531 78.5612C25.5816 78.9684 25.4459 79.5112 25.4459 80.0541C25.4459 80.1898 25.4459 80.597 25.4459 80.7327C25.3102 81.0041 25.0388 80.8684 24.903 80.597C23.4102 78.9684 23.2744 77.0683 23.1387 74.6254C22.7316 71.3682 22.053 67.2967 21.2387 64.0395C21.103 63.6323 20.9673 63.0895 20.9673 62.818C17.9815 66.211 16.2172 70.4182 16.4886 76.7969C16.8957 78.5612 17.9815 80.8684 18.9315 82.0899C19.8815 82.7684 20.6958 83.7185 21.3744 84.8042C21.9173 85.7542 21.9173 86.4328 21.2387 86.7042C20.6958 86.9757 20.153 86.9757 19.6101 86.9757C18.1172 87.1114 16.4886 86.9757 15.4028 86.5685C14.5885 86.2971 14.0457 85.3471 13.91 84.9399C12.96 84.1256 11.8742 82.3613 11.6028 81.1398C11.3314 81.547 11.1956 81.9541 11.0599 82.6327C11.0599 82.7684 11.0599 83.1756 10.9242 83.3113C10.7885 83.5827 10.517 83.447 10.3813 83.1756C9.15987 81.547 9.29559 79.6469 9.4313 77.204C9.70274 75.0326 9.56702 71.2325 9.15987 68.111C8.88844 66.211 8.48129 64.0395 8.48129 62.2752C8.48129 60.6465 9.02416 58.6108 9.56703 57.1179C10.3813 54.9464 11.0599 53.1821 9.97416 50.4678C9.29558 48.5677 8.07412 46.9391 7.25982 44.9034C6.03837 41.6462 5.08835 37.9818 4.95264 34.3175C4.6812 28.8888 5.90266 23.1887 9.4313 18.0314C9.29559 17.76 9.02416 17.3528 8.88844 17.2171C6.58125 21.0172 0.745421 20.61 0.0668358 15.9956C-0.340315 13.6885 1.15257 11.6527 3.45976 11.2455C5.22408 10.9741 6.98841 11.7884 8.20986 12.8741C8.34558 11.517 6.9884 9.20979 5.35979 8.53121C4.68121 8.25977 4.27406 7.58118 5.49552 7.7169C6.85269 7.85262 7.93842 8.80264 8.75272 10.0241C9.15987 10.7027 9.56702 11.517 9.70273 12.3313C9.83845 13.1456 9.83845 13.8242 9.70273 14.6385C9.70273 14.6385 10.2456 15.3171 10.6527 15.9956C19.0672 6.22402 31.0103 2.42394 43.0891 1.06677ZM105.383 78.0183C105.383 75.4397 104.976 72.8611 104.433 70.2825C104.162 71.7754 104.162 73.1325 104.162 74.2183C104.298 75.4397 104.84 76.7969 105.383 78.0183ZM8.07413 15.3171C7.25983 13.9599 5.63123 13.0099 4.13835 13.2813C2.23831 13.5527 2.10259 16.1314 3.45976 17.0814C4.81693 18.0314 6.9884 17.3528 8.07413 15.3171Z" fill="white"/>
</svg>
