<svg width="128" height="110" viewBox="0 0 128 110" fill="none" xmlns="http://www.w3.org/2000/svg">
<path fill-rule="evenodd" clip-rule="evenodd" d="M122.369 4.751C121.76 3.7448 121.049 2.63797 120.135 1.93363C115.464 -1.78933 107.951 0.122461 105.514 5.45534C103.077 10.9895 104.397 18.1335 101.757 23.9695C94.9542 37.1508 76.1702 27.4912 52.9187 38.6601C44.2882 42.0812 36.47 46.8103 29.9717 52.9482C21.8489 57.1743 11.8984 63.1109 11.4923 66.6326C8.75085 68.3431 4.38484 71.563 1.54185 74.1791C-1.70727 77.1977 0.628039 78.3045 4.38484 77.4996C5.40019 77.2983 6.51708 76.9965 7.63396 76.6946C13.4215 78.5058 25.7072 74.481 36.7746 70.5568C44.9989 79.9145 53.8325 82.6312 62.1584 83.3356C63.1737 85.7505 64.2906 87.461 65.509 88.4672C66.1182 90.6809 67.032 93.1964 67.6413 95.1082C67.9459 96.7181 68.5551 99.9379 68.6566 101.548C68.6566 102.152 68.352 102.655 68.1489 103.158C68.0474 103.359 67.9459 103.661 68.0474 103.862C67.9459 104.063 67.9459 104.365 68.0474 104.566C68.1489 104.365 68.2505 104.265 68.4535 104.164C68.5551 104.164 68.5551 104.164 68.6566 104.164C69.0628 104.063 69.1643 103.963 69.3674 104.265C69.5704 104.466 69.672 104.667 69.672 104.868C69.875 105.271 70.0781 105.573 70.3827 105.875C70.5858 106.076 71.7027 106.881 71.9057 107.082C72.1088 107.183 72.3119 107.183 72.4134 107.183C72.6165 107.283 72.8196 107.384 73.0226 107.484C73.1242 107.183 73.0226 106.981 72.9211 106.78C72.9211 106.68 72.9211 106.478 72.8196 106.378C72.6165 106.076 72.1088 105.875 71.8042 105.371C72.3119 105.371 72.718 105.371 73.1242 105.371C73.0226 105.673 72.9211 105.975 73.0226 106.176C73.0226 106.378 72.9211 106.68 73.0226 106.881C73.1242 106.68 73.2257 106.579 73.4288 106.478C73.5303 106.478 73.5303 106.478 73.6318 106.478C73.9364 106.378 74.1395 106.277 74.3426 106.579C74.5457 106.78 74.6472 106.981 74.6472 107.183C74.8502 107.585 75.0533 107.887 75.3579 108.189C75.561 108.39 76.6779 109.296 76.9825 109.497C77.1856 109.598 77.3886 109.698 77.4902 109.597C77.6932 109.698 77.8963 109.799 78.0994 110C78.0994 109.698 78.0994 109.497 77.9978 109.195C77.9978 109.094 77.9979 108.893 77.8963 108.793C77.6932 108.491 77.1856 108.189 76.7794 107.686C78.6071 107.585 80.1301 107.988 81.9577 108.088C82.5669 108.088 84.09 108.189 84.5976 107.887C84.9022 107.786 85.2069 107.786 85.5115 107.887C85.3084 107.585 85.1053 107.384 84.8007 107.283C84.6992 107.183 84.4961 106.981 84.09 106.981C83.4807 106.881 82.77 106.881 82.1608 106.881C81.3485 106.78 80.6378 106.579 79.927 106.378C80.1301 106.176 80.3332 106.176 80.5362 106.076C80.7393 105.975 81.0439 105.975 81.1454 105.774C81.3485 105.673 81.5516 105.673 81.7546 105.673C81.5516 105.371 81.3485 105.17 80.9424 105.17C80.7393 105.07 80.4347 105.07 80.1301 105.17C80.0286 105.07 79.927 104.969 79.7239 104.868C79.6224 104.768 79.4193 104.566 79.0132 104.566C78.404 104.466 77.6932 104.566 77.084 104.466C76.9825 104.466 76.881 104.365 76.7794 104.365C76.5764 104.063 76.4748 103.661 76.2717 103.359C76.4748 103.359 76.5764 103.258 76.7794 103.258C76.5764 102.957 76.3733 102.856 76.0687 102.755C75.2564 100.642 74.6472 98.0262 74.241 96.4162C74.038 95.5107 73.5303 92.5926 73.1242 89.9765C74.5456 88.7691 75.6625 86.3542 76.0687 82.6312C89.8775 80.7194 104.905 69.3493 106.834 55.0612C108.052 45.9048 108.154 46.106 111.301 37.352C112.114 35.239 112.621 32.9247 112.621 30.5098C114.957 29.6042 114.144 26.6863 113.332 23.7683C112.926 21.0515 112.621 19.341 114.855 17.5298C115.769 16.8255 116.581 16.2217 117.292 15.3162C119.424 12.4988 117.8 10.2851 122.166 10.2851C122.775 10.2851 123.486 10.2851 124.095 10.1845C125.415 10.4864 126.735 10.6876 127.75 10.6876C127.039 8.77582 124.501 6.26031 122.369 4.751ZM72.1088 102.554C70.7888 100.441 69.9766 96.6175 69.5704 94.4038C69.4689 93.6995 69.1643 91.8883 68.9612 90.0771C69.4689 90.379 69.875 90.5802 70.3827 90.6809C71.0935 92.9951 71.8042 95.41 72.2103 97.0199C72.5149 98.4286 73.0226 101.045 73.3272 102.856C72.8196 102.755 72.4134 102.655 72.1088 102.554Z" fill="white"/>
</svg>
