<?xml version="1.0" encoding="UTF-8"?>
<svg width="512px" height="512px" viewBox="0 0 512 512" version="1.1" xmlns="http://www.w3.org/2000/svg" xmlns:xlink="http://www.w3.org/1999/xlink">
    <title>whatsapp</title>
    <desc>Created with Sketch.</desc>
    <g id="Page-1" stroke="none" stroke-width="1" fill="none" fill-rule="evenodd">
        <g id="whatsapp" transform="translate(0.000000, -1.000000)" fill="#FFFFFF" fill-rule="nonzero">
            <path d="M373.482667,306.216 L373.290667,307.816 C326.378667,284.434667 321.472,281.32 315.413333,290.408 C311.210667,296.701333 298.965333,310.973333 295.274667,315.197333 C291.541333,319.357333 287.829333,319.677333 281.493333,316.797333 C275.093333,313.597333 254.549333,306.877333 230.229333,285.117333 C211.285333,268.157333 198.570667,247.357333 194.816,240.957333 C188.565333,230.162667 201.642667,228.626667 213.546667,206.098667 C215.68,201.618667 214.592,198.098667 213.013333,194.92 C211.413333,191.72 198.677333,160.36 193.344,147.858667 C188.224,135.4 182.954667,136.978667 179.008,136.978667 C166.72,135.912 157.738667,136.082667 149.824,144.317333 C115.392,182.162667 124.074667,221.202667 153.536,262.717333 C211.434667,338.493333 242.282667,352.445333 298.688,371.816 C313.92,376.658667 327.808,375.976 338.794667,374.397333 C351.04,372.456 376.490667,359.016 381.802667,343.976 C387.242667,328.936 387.242667,316.456 385.642667,313.576 C384.064,310.696 379.882667,309.096 373.482667,306.216 L373.482667,306.216 Z" id="Path"></path>
            <path d="M437.76,74.5786667 C273.728,-83.992 2.26133333,31.016 2.15466667,254.717333 C2.15466667,299.432 13.8666667,343.037333 36.1813333,381.544 L0,513 L135.146667,477.757333 C303.786667,568.850667 511.914667,447.890667 512,254.845333 C512,187.090667 485.546667,123.325333 437.44,75.4106667 L437.76,74.5786667 Z M469.376,254.141333 C469.248,416.978667 290.496,518.674667 149.12,435.56 L141.44,430.994667 L61.44,451.794667 L82.88,374.034667 L77.7813333,366.034667 C-10.1973333,225.981333 90.88,42.9413333 257.536,42.9413333 C314.154667,42.9413333 367.296,65.0213333 407.317333,105.021333 C447.317333,144.68 469.376,197.821333 469.376,254.141333 Z" id="Shape"></path>
        </g>
    </g>
</svg>